<?xml version="1.0" encoding="UTF-8" standalone="no"?>
<!-- Generator: Adobe Illustrator 16.0.0, SVG Export Plug-In . SVG Version: 6.00 Build 0)  -->

<svg
   xmlns:dc="http://purl.org/dc/elements/1.1/"
   xmlns:cc="http://creativecommons.org/ns#"
   xmlns:rdf="http://www.w3.org/1999/02/22-rdf-syntax-ns#"
   xmlns:svg="http://www.w3.org/2000/svg"
   xmlns="http://www.w3.org/2000/svg"
   xmlns:sodipodi="http://sodipodi.sourceforge.net/DTD/sodipodi-0.dtd"
   xmlns:inkscape="http://www.inkscape.org/namespaces/inkscape"
   version="1.1"
   id="Layer_1"
   x="0px"
   y="0px"
   width="169"
   height="37"
   viewBox="0 0 169 37"
   enable-background="new 0 0 192 37"
   xml:space="preserve"
   inkscape:version="0.48.4 r9939"
   sodipodi:docname="logo.svg"><metadata
   id="metadata27"><rdf:RDF><cc:Work
       rdf:about=""><dc:format>image/svg+xml</dc:format><dc:type
         rdf:resource="http://purl.org/dc/dcmitype/StillImage" /></cc:Work></rdf:RDF></metadata><defs
   id="defs25">
	

		
		
		
		
		
		
		
		
	</defs><sodipodi:namedview
   pagecolor="#3f3f3f"
   bordercolor="#666666"
   borderopacity="1"
   objecttolerance="10"
   gridtolerance="10"
   guidetolerance="10"
   inkscape:pageopacity="0"
   inkscape:pageshadow="2"
   inkscape:window-width="1920"
   inkscape:window-height="1017"
   id="namedview23"
   showgrid="false"
   showguides="true"
   inkscape:guide-bbox="true"
   inkscape:zoom="4.2131779"
   inkscape:cx="118.91205"
   inkscape:cy="29.288753"
   inkscape:window-x="-8"
   inkscape:window-y="-8"
   inkscape:window-maximized="1"
   inkscape:current-layer="Layer_1" />

<g
   id="g3037"><path
     style="fill:#ffffff"
     inkscape:connector-curvature="0"
     id="path9"
     d="m 145.92784,31.697 c -4.124,0 -6.286,-3.587 -6.286,-7.137 0,-3.394 1.97,-7.04 6.286,-7.04 3.972,0 6.426,3.701 6.426,7.136 0,3.462 -2.402,7.041 -6.426,7.041 M 157.11284,0 h -3.728 c -0.67,0 -1.221,0.545 -1.221,1.211 v 14.476 c -1.908,-2.184 -4.439,-3.296 -7.516,-3.296 -6.527,0 -11.265,5.117 -11.265,12.169 0,7.16 4.801,12.355 11.41,12.354 3.145,10e-4 6.017,-1.379 7.654,-3.637 v 1.749 c 0,0.669 0.541,1.219 1.211,1.219 h 3.453 c 0.671,0 1.218,-0.55 1.218,-1.219 V 1.211 C 158.33084,0.545 157.78384,0 157.11284,0" /><path
     style="fill:#ffffff"
     inkscape:connector-curvature="0"
     id="path11"
     d="m 12.782,12.393 c -3.106,0 -5.483,1.625 -6.617,3.326 V 1.216 C 6.165,0.545 5.618,0.003 4.947,0.003 H 1.22 C 0.551,0.003 0,0.545 0,1.216 v 33.821 c 0,0.673 0.551,1.217 1.22,1.217 h 3.727 c 0.671,0 1.218,-0.544 1.218,-1.217 V 23.615 c 0,-2.826 1.596,-5.862 5.109,-5.862 2.653,0 3.954,1.875 3.962,5.728 v 11.557 c 0,0.673 0.547,1.217 1.218,1.217 h 3.727 c 0.674,0 1.219,-0.544 1.219,-1.217 V 21.816 C 21.399,17.47 19.142,12.393 12.782,12.393" /><path
     style="fill:#ffffff"
     inkscape:connector-curvature="0"
     id="path15"
     d="m 118.0497,17.142 c 3.637,0 5.011,2.538 5.101,4.999 h -11.127 c 0.35,-2.87 2.895,-4.999 6.026,-4.999 m 0.046,-4.749 c -7.219,0 -12.265,5.101 -12.265,12.404 0,7.249 5.006,12.118 12.45,12.118 0.674,0 1.216,-0.546 1.216,-1.218 v -2.693 c 0,-0.666 -0.542,-1.21 -1.26,-1.21 -3.187,0 -5.86,-2.221 -6.214,-5.096 h 16.072 c 0.652,0 1.198,-0.533 1.212,-1.171 l 0.008,-0.029 -0.006,-0.121 c 0.006,-0.142 0.006,-0.291 0.006,-0.439 0.001,-7.738 -4.297,-12.545 -11.219,-12.545" /><path
     style="fill:#ffffff"
     inkscape:connector-curvature="0"
     id="path21"
     d="m 169.23399,33.498 c 0,1.886 -1.531,3.417 -3.417,3.417 -1.888,0 -3.42,-1.531 -3.42,-3.417 0,-1.89 1.532,-3.417 3.42,-3.417 1.886,0 3.417,1.527 3.417,3.417" /><path
     d="m 35.361143,32.029 c -1.119,0 -3.733,-0.25 -3.733,-2.596 0,-2.38 2.754,-3.542 8.416,-3.542 h 1.036 v 0.561 c 0,3.543 -2.088,5.577 -5.719,5.577 m 1.234,-19.636 c -3.697,0 -7.261,1.333 -9.766,3.653 -0.508,0.439 -0.569,1.205 -0.139,1.72 l 1.676,1.965 c 0.411,0.493 1.198,0.581 1.725,0.126 1.561,-1.558 3.871,-2.526 6.026,-2.526 2.288,0 4.962,1.025 4.962,3.919 v 0.322 c -6.779,0.021 -15.611,0.908 -15.611,7.956 0,5.044 4.399,7.294 8.755,7.294 2.92,0 5.568,-1.192 6.94,-3.075 v 1.284 c 0,0.674 0.545,1.219 1.214,1.219 h 3.365 c 0.674,0 1.219,-0.545 1.219,-1.219 V 22.195 c 10e-4,-3.661 -1.346,-9.802 -10.366,-9.802"
     id="path3025"
     inkscape:connector-curvature="0"
     style="fill:#ffffff" /><path
     d="m 74.993287,23.344 -3.822,-0.002 c -0.67,0.002 -1.217,0.547 -1.217,1.219 0,3.438 -1.982,7.139 -6.331,7.139 -4.353,0 -6.338,-3.701 -6.338,-7.139 0,-3.394 1.985,-7.044 6.338,-7.044 0.664,0 1.217,-0.541 1.215,-1.216 v -2.69 c 0.001,-0.671 -0.552,-1.218 -1.215,-1.218 -7.298,0 -12.594,5.117 -12.594,12.169 0,7.042 5.412,12.354 12.594,12.355 7.173,-0.001 12.587,-5.313 12.587,-12.355 0.002,-0.673 -0.543,-1.218 -1.217,-1.218"
     id="path3027"
     inkscape:connector-curvature="0"
     style="fill:#ffffff" /><path
     sodipodi:nodetypes="csssssssscszscczszzcc"
     d="m 86.445432,20.881374 0,-19.665374 c 0,-0.671 -0.545,-1.213 -1.219,-1.213 l -3.729,0 c -0.673,0 -1.219,0.542 -1.219,1.213 l 0,33.821 c 0,0.673 0.546,1.217 1.219,1.217 l 3.729,0 c 0.674,0 1.219,-0.544 1.219,-1.217 l 0,-6.724146 c 0,0 4.973829,4.384551 8.071171,7.208411 0.716254,0.653011 0.736383,0.715941 1.653121,0.737015 0.916738,0.02107 4.663566,0 4.663566,0 0.668,0 1.18155,-0.768083 0.79764,-1.320841 -3.734267,-3.524476 -11.316813,-10.475947 -11.316813,-10.475947 0,0 10.125053,-10.17052 10.823393,-10.854086 0.69834,-0.683567 0.55372,-1.236777 -0.0305,-1.236777 -0.26975,0 -4.963313,0 -5.721411,0 -0.758099,0 -1.00003,0.485606 -1.980455,1.236777 -0.980426,0.751171 -6.959762,6.680592 -6.959762,6.680592 z"
     id="path3029"
     inkscape:connector-curvature="0"
     style="fill:#ffffff" /></g></svg>